<svg width="117" height="28" viewBox="0 0 117 28" fill="none" xmlns="http://www.w3.org/2000/svg">
<g opacity="0.3" clip-path="url(#clip0_0_27)">
<path d="M27.3664 26.1392H20.91L18.9349 21.335H8.17465L6.37516 26.1392H0.0251465L9.72646 1.87487H16.6766L27.3664 26.1392ZM13.2899 7.67292L9.76211 17.1007H17.1709L13.2899 7.67292ZM50.8194 1.87487H56.0406V26.1392H50.0425V10.983L43.5512 18.5959H42.6343L36.1434 10.983V26.1389H30.1452V1.87487H35.3665L43.0924 10.8759L50.8194 1.87487ZM71.2385 1.87487C80.0226 1.87487 84.5376 7.38866 84.5376 14.0417C84.5376 21.0147 80.1636 26.1392 70.5678 26.1392H60.6188V1.87487H71.2385ZM66.6165 21.692H70.5319C76.5646 21.692 78.3641 17.5641 78.3641 14.0057C78.3641 9.84275 76.1412 6.32151 70.4613 6.32151H66.6164V21.692H66.6165ZM96.4706 7.62816L88.9077 0H116.44V27.7664L108.877 20.1391V7.62816H96.4706ZM96.4617 9.1567L88.6753 17.0086V28H99.5731L107.359 20.1481H96.4617V9.1567Z" fill="#202430"/>
</g>
<defs>
<clipPath id="clip0_0_27">
<rect width="116.465" height="28" fill="white"/>
</clipPath>
</defs>
</svg>
