<svg width="32" height="32" viewBox="0 0 32 32" fill="none" xmlns="http://www.w3.org/2000/svg">
<circle opacity="0.1" cx="16" cy="16" r="16" fill="white"/>
<path d="M22.3343 14.36C22.6212 15.452 22.6212 16.544 22.3343 17.636C22.0473 18.7282 21.4959 19.6823 20.6798 20.4989C19.8638 21.3155 18.9101 21.8675 17.8189 22.1546C16.7276 22.4418 15.6364 22.4418 14.5451 22.1547C13.4537 21.8675 12.5 21.3156 11.6841 20.4991C10.8681 19.6825 10.3167 18.7282 10.0296 17.6361C9.74273 16.5441 9.74273 15.4522 10.0296 14.36C10.3166 13.268 10.8681 12.3137 11.6841 11.4971C12.5001 10.6805 13.4538 10.1286 14.5451 9.84143C15.6363 9.55423 16.7276 9.55439 17.8188 9.84149C18.9101 10.1287 19.8637 10.6807 20.6797 11.4972C21.4957 12.3138 22.0473 13.2681 22.3343 14.36ZM20.0238 19.8426C20.992 18.8737 21.5172 17.7074 21.5992 16.3439L21.4236 16.3147C21.3533 16.3029 21.2011 16.2971 20.9668 16.297C20.7326 16.297 20.4934 16.3136 20.2494 16.3468C20.0053 16.3801 19.6969 16.4483 19.324 16.552C18.9511 16.6555 18.5792 16.7912 18.2082 16.9593C18.587 18.2369 18.8526 19.4637 19.0048 20.6397C19.3875 20.4052 19.7271 20.1395 20.0238 19.8426ZM15.5555 21.3957C16.4026 21.4934 17.2225 21.3997 18.0151 21.1144C17.855 19.9853 17.5934 18.7702 17.2303 17.4691C15.7311 18.3443 14.3919 19.3718 13.2128 20.5518C13.9273 21.0166 14.7083 21.298 15.5555 21.3957ZM11.2125 18.1986C11.4799 18.8101 11.8558 19.3581 12.34 19.8427C12.3947 19.8974 12.4377 19.9364 12.4689 19.9599C13.8823 18.5454 15.3777 17.4123 16.9551 16.5606C16.838 16.1934 16.7248 15.873 16.6154 15.5994C16.5918 15.6074 16.5579 15.6239 16.5129 15.6493C16.4679 15.6748 16.4358 15.6934 16.4161 15.7052L16.1233 15.8458C15.9202 15.9396 15.6322 16.0402 15.2595 16.1477C14.8865 16.2549 14.4738 16.3517 14.0208 16.4377C13.5678 16.5236 13.0466 16.5587 12.4569 16.543C11.8674 16.5274 11.3014 16.4435 10.7587 16.2911C10.7938 16.9514 10.9452 17.5873 11.2125 18.1986ZM12.34 12.1534C11.4264 13.0677 10.9032 14.1774 10.7704 15.4823L10.7938 15.3299C11.2312 15.4941 11.7212 15.582 12.2639 15.5936C12.8065 15.6053 13.2859 15.5732 13.7017 15.497C14.1174 15.4207 14.5449 15.3133 14.9844 15.1747C15.4235 15.0359 15.7163 14.9346 15.8627 14.8699C16.0091 14.8054 16.1254 14.7537 16.2113 14.7146L16.2289 14.7089L16.2407 14.6971C15.6197 13.3102 14.9209 12.0636 14.1439 10.958C13.4566 11.2392 12.8555 11.6377 12.34 12.1534ZM17.3388 10.6852C16.6027 10.527 15.8715 10.5182 15.1455 10.6588C15.8833 11.7177 16.5492 12.884 17.1425 14.1577C18.0406 13.5014 18.7823 12.6457 19.3681 11.5909C18.7512 11.1455 18.0746 10.8435 17.3388 10.6852ZM20.018 12.2648C19.9867 12.3116 19.9467 12.3694 19.8978 12.4377C19.849 12.506 19.7895 12.5891 19.7192 12.6868C19.649 12.7844 19.5678 12.891 19.4761 13.0062C19.3844 13.1215 19.2848 13.2425 19.1773 13.3696C19.07 13.4966 18.9528 13.6294 18.826 13.7681C18.699 13.9069 18.5673 14.0446 18.4306 14.1813C18.2941 14.318 18.1465 14.4577 17.9885 14.6003C17.8306 14.743 17.6713 14.8746 17.5113 14.9958C17.5191 15.0271 17.5367 15.074 17.564 15.1365C17.5914 15.199 17.6128 15.246 17.6286 15.277C17.7183 15.5155 17.8179 15.7871 17.9271 16.0919C18.3059 15.9317 18.6885 15.8007 19.0752 15.699C19.4617 15.5976 19.7836 15.5292 20.0414 15.494C20.2992 15.4589 20.5559 15.4384 20.8116 15.4325C21.0674 15.4266 21.239 15.4286 21.327 15.4383C21.415 15.4481 21.4998 15.4588 21.5817 15.4705L21.5935 15.4706C21.4686 14.2047 20.9592 13.1126 20.0649 12.1945L20.018 12.2648Z" fill="white"/>
</svg>
