<svg width="83" height="32" viewBox="0 0 83 32" fill="none" xmlns="http://www.w3.org/2000/svg">
<g opacity="0.3" clip-path="url(#clip0_0_18)">
<path d="M0 0.446289H5.94025V6.41618H0V0.446289Z" fill="#202430"/>
<path d="M5.79252 31.5512V10.0297H0.148193V31.5299H5.7926L5.79252 31.5512ZM43.1677 31.7636V26.4948C42.3432 26.4948 41.6456 26.4523 41.1382 26.3674C40.5463 26.2824 40.1024 26.0699 39.8064 25.7725C39.5104 25.4751 39.3202 25.0501 39.2145 24.4765C39.13 23.9453 39.0877 23.2443 39.0877 22.3945V14.8949H43.1677V10.0297H39.0876V1.65911H33.4432V22.4583C33.4432 24.2216 33.5913 25.7087 33.8872 26.8985C34.1832 28.067 34.6906 29.023 35.3881 29.7453C36.0857 30.4677 37.0159 30.9775 38.1363 31.2963C39.2778 31.6149 40.7154 31.7636 42.4277 31.7636H43.1677ZM75.4693 31.5512V0.00195312H69.8249V31.5512H75.4693ZM28.0105 12.1543C26.4462 10.4546 24.2476 9.60483 21.4572 9.60483C20.1043 9.60483 18.857 9.88103 17.7577 10.4334C16.6374 10.9858 15.7072 11.7506 14.9462 12.7278L14.6502 13.1315V10.0297H9.09045V31.5299H14.6924V20.0787V20.4824C14.7559 18.4641 15.2421 16.9769 16.1722 16.0209C17.1659 15.0011 18.3707 14.4913 19.7449 14.4913C21.3727 14.4913 22.6199 15.0011 23.4444 15.9784C24.2476 16.9557 24.6704 18.3366 24.6704 20.1V31.5299H30.357V19.3351C30.3782 16.2758 29.5749 13.8539 28.0105 12.1543ZM66.9075 20.7585C66.9075 19.2077 66.6328 17.763 66.1043 16.4033C65.5546 15.0648 64.7935 13.8751 63.8423 12.8553C62.8699 11.8356 61.7072 11.0495 60.3543 10.4759C59.0013 9.90223 57.5004 9.62603 55.8726 9.62603C54.3294 9.62603 52.8707 9.92351 51.5178 10.4971C50.1649 11.092 48.981 11.8781 47.9874 12.8766C46.9939 13.8751 46.1906 15.0649 45.6198 16.4246C45.0279 17.7843 44.753 19.2502 44.753 20.8011C44.753 22.352 45.028 23.8179 45.5775 25.1776C46.1271 26.5373 46.9094 27.727 47.8817 28.7256C48.8542 29.7241 50.0592 30.5314 51.4543 31.105C52.8496 31.6999 54.3928 31.9974 56.0418 31.9974C60.8193 31.9974 63.7788 29.8091 65.5546 27.7695L61.4958 24.6677C60.6502 25.6875 58.6208 27.0685 56.084 27.0685C54.4985 27.0685 53.1879 26.7072 52.1942 25.9637C51.2007 25.2413 50.5242 24.2216 50.1648 22.9681L50.1014 22.7769H66.9075V20.7585ZM50.1437 18.7828C50.1437 17.2106 51.9406 14.47 55.8092 14.4488C59.6777 14.4488 61.4958 17.1894 61.4958 18.7615L50.1437 18.7828ZM81.8958 28.8318C81.7901 28.5769 81.6422 28.3644 81.4519 28.1732C81.2616 27.982 81.0502 27.8333 80.7966 27.727C80.5429 27.6208 80.2681 27.5571 79.9932 27.5571C79.6973 27.5571 79.4436 27.6208 79.19 27.727C78.9362 27.8333 78.7248 27.982 78.5346 28.1732C78.3444 28.3644 78.1963 28.5769 78.0906 28.8318C77.9849 29.0867 77.9216 29.3629 77.9216 29.6391C77.9216 29.9365 77.9849 30.1914 78.0906 30.4465C78.1963 30.7013 78.3444 30.9138 78.5346 31.105C78.7248 31.2963 78.9362 31.445 79.19 31.5512C79.4436 31.6574 79.7185 31.7211 79.9932 31.7211C80.2892 31.7211 80.5429 31.6574 80.7966 31.5512C81.0502 31.445 81.2616 31.2963 81.4519 31.105C81.6422 30.9138 81.7901 30.7014 81.8959 30.4465C82.0017 30.1915 82.0649 29.9153 82.0649 29.639C82.0649 29.3627 82.0015 29.0867 81.8959 28.8318H81.8958ZM81.5576 30.319C81.4731 30.5314 81.3462 30.7226 81.1982 30.8714C81.0502 31.0201 80.86 31.1475 80.6486 31.2325C80.4372 31.3175 80.2258 31.3599 79.9721 31.3599C79.7396 31.3599 79.507 31.3175 79.2957 31.2325C79.0844 31.1476 78.894 31.0201 78.746 30.8713C78.598 30.7226 78.4712 30.5314 78.3866 30.319C78.302 30.1065 78.2598 29.894 78.2598 29.6391C78.2598 29.4054 78.302 29.1717 78.3867 28.9593C78.4712 28.7468 78.598 28.5556 78.746 28.4069C78.894 28.2582 79.0843 28.1307 79.2957 28.0456C79.507 27.9607 79.7184 27.9182 79.9721 27.9182C80.2046 27.9182 80.4372 27.9608 80.6486 28.0457C80.86 28.1307 81.0502 28.2582 81.1982 28.407C81.3462 28.5556 81.4731 28.7467 81.5576 28.9593C81.6422 29.1718 81.6844 29.3842 81.6844 29.6391C81.6844 29.894 81.6422 30.1065 81.5576 30.319ZM80.3738 29.8303C80.5428 29.8091 80.6697 29.7453 80.7754 29.6391C80.8811 29.5329 80.9445 29.3842 80.9445 29.1717C80.9445 28.938 80.8811 28.768 80.7331 28.6406C80.6063 28.5131 80.3738 28.4493 80.0989 28.4493H79.1688V30.8501H79.6128V29.8728H79.9298L80.5217 30.8501H80.9868L80.3738 29.8303ZM80.1412 29.4691H79.6126V28.7893H80.1411C80.2045 28.7893 80.268 28.8105 80.3314 28.8318C80.3949 28.8531 80.4371 28.8955 80.4582 28.938C80.5005 28.9805 80.5005 29.0442 80.5005 29.1292C80.5005 29.2141 80.4794 29.278 80.4582 29.3204C80.4159 29.3629 80.3737 29.4054 80.3314 29.4267C80.268 29.4479 80.2045 29.4691 80.1411 29.4691H80.1412Z" fill="#202430"/>
</g>
<defs>
<clipPath id="clip0_0_18">
<rect width="82.0647" height="32" fill="white"/>
</clipPath>
</defs>
</svg>
