<svg width="109" height="32" viewBox="0 0 109 32" fill="none" xmlns="http://www.w3.org/2000/svg">
<g opacity="0.3">
<path d="M10.8265 31.6074C10.2509 31.6074 9.96247 31.3594 9.96247 30.861V30.7045C9.96247 30.3914 10.2257 29.9195 10.7511 29.291C11.3016 28.6373 11.5768 27.9823 11.5768 27.3286V6.68086H9.5867C9.01107 6.68086 8.48571 6.93008 8.00941 7.42731C7.56387 7.91675 7.19649 8.47276 6.92039 9.07552C6.66908 9.65101 6.35793 10.188 5.98216 10.6852C5.60639 11.1824 5.23062 11.4316 4.85485 11.4316H4.21699C3.51571 11.4316 3.20217 11.0512 3.27756 10.2927L4.02911 4.95319C4.1033 4.14294 4.52934 3.7372 5.30601 3.7372H24.6092C25.3595 3.7372 25.7856 4.14294 25.8849 4.95319L26.6747 10.3312C26.7238 10.672 26.6616 10.9465 26.4856 11.1559C26.3109 11.3389 26.0608 11.4304 25.7353 11.4304H25.0962C24.7217 11.4304 24.3459 11.1824 23.9701 10.684C23.5944 10.1856 23.2688 9.65101 22.9936 9.07552C22.7184 8.47354 22.3426 7.92454 21.8675 7.42611C21.3912 6.93008 20.8658 6.68086 20.2902 6.68086H18.3371V27.3286C18.3371 27.9823 18.6004 28.6373 19.1258 29.291C19.6763 29.9195 19.9515 30.3902 19.9515 30.7045V30.861C19.9515 31.3594 19.6523 31.6074 19.0504 31.6074H10.8265ZM42.6211 27.3286C42.6965 27.9571 42.8341 28.4675 43.0339 28.86C43.2601 29.226 43.4719 29.462 43.673 29.5667C43.898 29.6715 44.0978 29.8015 44.2738 29.9592C44.4485 30.1157 44.537 30.312 44.537 30.548C44.537 31.4112 43.1225 31.8434 40.2934 31.8434C39.141 31.8434 38.277 31.6989 37.7013 31.41C37.1508 31.1235 36.8002 30.6395 36.6506 29.9592C35.698 31.3197 34.1088 31.9999 31.8805 31.9999C29.7778 31.9999 28.0629 31.4895 26.7346 30.4685C25.4337 29.4488 24.7839 27.9703 24.7839 26.0332C24.7839 24.149 25.4337 22.6838 26.7346 21.6363C28.0378 20.5648 29.6402 20.0278 31.543 20.0278C33.0198 20.0278 34.2835 20.3541 35.3366 21.0091V20.8911C35.0853 18.3002 34.7981 16.5472 34.4714 15.6298C34.1722 14.7148 33.5702 14.2573 32.6691 14.2573C32.0935 14.2573 31.6304 14.5318 31.2797 15.0808C30.9258 15.6383 30.6598 16.2474 30.4911 16.8867C30.3358 17.5515 30.0271 18.1702 29.5899 18.6927C29.1388 19.2429 28.538 19.5174 27.7877 19.5174C27.011 19.5174 26.3731 19.2814 25.8729 18.8107C25.3966 18.3399 25.1585 17.7247 25.1585 16.9662C25.1585 15.448 25.8849 14.3091 27.3365 13.5506C28.7881 12.7656 30.5665 12.3731 32.6691 12.3731C35.1727 12.3731 37.2382 13.0919 38.8658 14.5318C40.5172 15.9453 41.495 17.868 41.7953 20.3023L42.6211 27.3286ZM33.946 29.9978C34.5216 29.9978 34.9848 29.71 35.3354 29.1345C35.7112 28.559 35.8979 27.9041 35.8979 27.1721L35.7483 25.3662C35.4982 23.1942 34.7227 22.1083 33.4207 22.1083C32.845 22.1083 32.3819 22.3563 32.0313 22.8547C31.6806 23.3243 31.5047 23.966 31.5047 24.7774C31.5047 26.2426 31.7177 27.4863 32.1438 28.5061C32.5937 29.5005 33.1957 29.999 33.946 29.999V29.9978ZM46.1813 31.6074C45.6045 31.6074 45.3173 31.3594 45.3173 30.861V30.7045C45.3173 30.3914 45.5542 29.9195 46.0305 29.291C46.5308 28.6373 46.7809 27.9823 46.7809 27.3286V9.38975C46.7809 8.70952 46.5308 8.05457 46.0305 7.42731C45.5542 6.77236 45.3173 6.31486 45.3173 6.0524V5.89589C45.3173 5.60694 45.5925 5.30595 46.143 4.99292L51.8131 2.08779C52.3397 1.85302 52.7525 1.83978 53.0529 2.04927C53.3784 2.23227 53.5412 2.52001 53.5412 2.9125V27.3286C53.5412 27.9823 53.8164 28.6373 54.3669 29.291C54.9174 29.9195 55.1927 30.3902 55.1927 30.7045V30.861C55.1927 31.3594 54.8935 31.6074 54.2927 31.6074H46.1813ZM76.7768 28.3098C76.9024 28.4928 77.2782 28.8335 77.9041 29.3308C78.5551 29.828 78.8806 30.2855 78.8806 30.7045V30.861C78.8806 31.3594 78.5934 31.6074 78.0166 31.6074H70.1302C69.5546 31.6074 69.2661 31.3462 69.2661 30.8225V30.7045C69.2661 30.3914 69.454 30.011 69.8298 29.5655C70.2056 29.096 70.281 28.6758 70.0548 28.3098L66.7506 23.1677L64.8718 24.9737V27.3286C64.8718 27.9823 65.147 28.6373 65.6987 29.291C66.2743 29.9195 66.5627 30.3902 66.5627 30.7045V30.861C66.5627 31.3594 66.2624 31.6074 65.6616 31.6074H57.549C56.9483 31.6074 56.6479 31.3594 56.6479 30.861V30.7045C56.6479 30.3914 56.8992 29.9195 57.3994 29.291C57.8997 28.6373 58.151 27.9823 58.151 27.3286V9.38975C58.151 8.70952 57.8494 8.05457 57.2486 7.42731C56.6479 6.77236 56.3475 6.31486 56.3475 6.0524V5.89589C56.3475 5.60694 56.6227 5.30595 57.1732 4.99292L63.1844 2.08779C63.7098 1.87831 64.1226 1.86627 64.423 2.04927C64.7234 2.23227 64.8742 2.52001 64.8742 2.9125V21.5581L69.9435 17.0047C70.2439 16.7952 70.3564 16.534 70.2822 16.2198C70.2364 15.9148 70.1061 15.629 69.9064 15.3951C69.7108 15.1041 69.5105 14.8163 69.3056 14.5318C69.1046 14.2188 69.0053 13.9419 69.0053 13.7071V13.5506C69.0053 13.0269 69.2925 12.7656 69.8681 12.7656H75.8027C76.3771 12.7656 76.6655 13.0136 76.6655 13.5121V13.6686C76.6655 13.9816 76.4908 14.3091 76.1401 14.6498C75.7895 14.9628 75.2893 15.3433 74.6382 15.7875C74.1036 16.1345 73.601 16.529 73.1364 16.9662L70.7321 19.2814L76.7768 28.3098ZM84.3497 10.4492C83.0728 10.4492 82.034 10.0832 81.2322 9.35002C80.4304 8.59153 80.0307 7.64884 80.0307 6.52435C80.0307 5.39865 80.4316 4.46921 81.2322 3.7372C82.034 2.97872 83.0728 2.59827 84.3497 2.59827C85.6014 2.59827 86.6282 2.97751 87.4288 3.7372C88.2306 4.46921 88.6303 5.39865 88.6303 6.52435C88.6303 7.64884 88.2306 8.59153 87.4288 9.35002C86.627 10.0832 85.6014 10.4492 84.3497 10.4492ZM80.3311 31.6074C79.7303 31.6074 79.4299 31.3594 79.4299 30.861V30.7045C79.4299 30.3914 79.6812 29.9063 80.1815 29.2525C80.6817 28.5988 80.9318 27.9438 80.9318 27.2901V19.8316C80.9318 19.1514 80.6817 18.4964 80.1815 17.8692C79.68 17.2142 79.4299 16.7688 79.4299 16.5328V16.3763C79.4299 16.0632 79.7171 15.7623 80.294 15.4733L85.964 12.5694C86.4906 12.3334 86.9035 12.3069 87.2038 12.4911C87.5042 12.6741 87.655 12.9751 87.655 13.3941V27.2901C87.655 27.9438 87.9303 28.5976 88.4808 29.2525C89.0564 29.9063 89.3448 30.3902 89.3448 30.7045V30.861C89.3448 31.3582 89.0312 31.6074 88.4054 31.6074H80.3311ZM98.7534 31.9999C96.8506 31.9999 95.35 31.3715 94.2478 30.1157C93.1707 28.86 92.6322 27.0673 92.6322 24.7377V15.4348H91.2057C90.971 15.4403 90.7431 15.3559 90.5678 15.1988C90.4157 15.0108 90.3354 14.7742 90.3417 14.5318V13.6686C90.3417 13.0666 90.6301 12.7656 91.2057 12.7656H91.9189C93.0714 12.7656 94.0611 12.4117 94.8868 11.7061C95.7126 10.9717 96.2511 10.005 96.5012 8.80102C96.6269 8.12078 96.9643 7.78007 97.5148 7.78007H98.3789C99.055 7.78007 99.3925 8.12078 99.3925 8.80102V12.7656H103.261C103.512 12.7656 103.711 12.8571 103.862 13.0401C104.037 13.1966 104.126 13.4061 104.126 13.6686V14.5318C104.128 14.655 104.106 14.7775 104.061 14.892C104.015 15.0065 103.948 15.1108 103.862 15.1988C103.784 15.2781 103.69 15.3401 103.587 15.3808C103.483 15.4214 103.372 15.4398 103.261 15.4348H99.3925V24.8557C99.3925 25.5094 99.5552 26.0332 99.8808 26.4256C100.206 26.7928 100.607 26.9758 101.082 26.9758C102.159 26.9758 102.985 26.4919 103.562 25.5227C103.737 25.2879 103.936 25.1567 104.163 25.1302C104.388 25.0784 104.576 25.1181 104.725 25.2482C104.901 25.3794 104.988 25.5612 104.988 25.7984C104.988 27.4466 104.426 28.8986 103.299 30.1555C102.198 31.3847 100.683 31.9999 98.7534 31.9999Z" fill="#202430"/>
</g>
</svg>
