<svg width="183" height="24" viewBox="0 0 183 24" fill="none" xmlns="http://www.w3.org/2000/svg">
<g opacity="0.3" clip-path="url(#clip0_0_22)">
<path d="M156.07 9.52369V23.9861H160.658V14.3445H177.438V23.9861H182.027V9.52369H156.07ZM160.134 4.83496H177.832C180.322 4.3727 182.092 2.12739 182.617 0.0141602H155.349C155.873 2.12739 157.708 4.30666 160.134 4.83496ZM142.108 23.9861C144.402 22.9955 145.648 21.2785 146.172 19.2974H125.524V0.0801986H120.87V23.9861H142.108ZM86.4578 4.76893H102.845C105.336 4.0425 107.368 2.12739 107.892 0.0801986H81.935V14.2124H103.173V19.1653H86.5234C83.9015 19.8917 81.6728 21.6748 80.5585 23.9861H107.761V9.52369H86.5234L86.4578 4.76893ZM46.0803 4.83496H63.7782C66.2691 4.3727 68.1044 2.12739 68.5632 0.0141602H41.2297C41.7541 2.12739 43.5895 4.30666 46.0803 4.83496ZM46.0803 14.2785H63.7782C66.2691 13.8162 68.1044 11.5709 68.5632 9.45765H41.2297C41.7541 11.5709 43.5895 13.7502 46.0803 14.2785ZM46.0803 23.9861H63.7782C66.2691 23.5238 68.1044 21.2785 68.5632 19.1653H41.2297C41.7541 21.2785 43.5895 23.5238 46.0803 23.9861Z" fill="#202430"/>
<path d="M0 0.0801986C0.524384 2.19343 2.35973 4.30666 4.785 4.83496H12.2575L12.6508 4.96704V23.9201H17.3047V4.96704L17.6979 4.83496H25.1704C27.6612 4.17458 29.431 2.19343 29.9554 0.0801986V0.0141602L0 0.0801986Z" fill="#202430"/>
</g>
<defs>
<clipPath id="clip0_0_22">
<rect width="182.682" height="24" fill="white"/>
</clipPath>
</defs>
</svg>
