<svg width="154" height="40" viewBox="0 0 154 40" fill="none" xmlns="http://www.w3.org/2000/svg">
<g opacity="0.3">
<path d="M37.5616 19.9998C37.5616 25.0216 35.5829 29.8378 32.0608 33.3887C28.5387 36.9397 23.7618 38.9346 18.7808 38.9346C13.7998 38.9346 9.02284 36.9397 5.50076 33.3887C1.97868 29.8378 0 25.0216 0 19.9998C0 14.978 1.97868 10.1618 5.50076 6.61083C9.02284 3.05986 13.7998 1.06494 18.7808 1.06494C23.7618 1.06494 28.5387 3.05986 32.0608 6.61083C35.5829 10.1618 37.5616 14.978 37.5616 19.9998Z" fill="#202430"/>
<path d="M18.9353 30.5529C13.7744 30.5713 8.4046 26.1376 8.37734 19.0015C8.36826 14.2838 10.8942 9.74935 14.1106 7.05615C17.2635 4.42708 21.5702 2.7507 25.4772 2.73237C25.9331 2.71507 26.3891 2.76444 26.831 2.87894C25.1157 3.26011 23.578 4.21351 22.4667 5.58496C21.3554 6.9564 20.7354 8.66569 20.7071 10.4364C20.7071 10.5646 20.7071 10.6929 20.7252 10.7479C26.4494 12.1494 29.0389 15.6304 29.0571 20.4489C29.0535 21.7832 28.7886 23.1038 28.2774 24.3346C27.7663 25.5654 27.019 26.6823 26.0785 27.6212C25.138 28.5601 24.0228 29.3023 22.7969 29.8055C21.5711 30.3086 20.2588 30.5626 18.9353 30.5529Z" fill="white"/>
<path d="M49.6914 27.8416L43.9581 14.0183H47.7107L51.2996 23.1972L54.7705 14.0183H58.3504L52.7716 27.8416H49.6914ZM68.3359 20.8612C68.34 20.3052 68.2728 19.751 68.136 19.2123C68.0203 18.7356 67.8169 18.2851 67.5363 17.8841C67.2835 17.5205 66.9547 17.2172 66.5732 16.9955C66.1662 16.7639 65.7048 16.6468 65.2376 16.6565C64.7702 16.6463 64.3088 16.7634 63.9019 16.9955C63.5164 17.2152 63.1843 17.5187 62.9297 17.8841C62.6513 18.2885 62.4509 18.7423 62.3391 19.2215C62.203 19.7572 62.1359 20.3083 62.1392 20.8612C62.1347 21.4173 62.2019 21.9716 62.3391 22.5101C62.4535 22.9854 62.6471 23.4376 62.9115 23.8476C63.1629 24.234 63.5071 24.5501 63.9123 24.7663C64.3174 24.9825 64.7702 25.0919 65.2285 25.0842C65.6866 25.0983 66.1405 24.9916 66.5452 24.7747C66.9499 24.5578 67.2915 24.2383 67.5363 23.8476C67.813 23.4443 68.016 22.9945 68.136 22.5193C68.274 21.9778 68.3412 21.4203 68.3359 20.8612ZM71.7977 20.8704C71.7978 21.7719 71.6599 22.6679 71.3888 23.527C71.1245 24.3744 70.7088 25.1661 70.1622 25.8629C69.576 26.6062 68.8252 27.2006 67.9699 27.5983C67.1147 27.996 66.1788 28.186 65.2376 28.153C64.2953 28.1838 63.3588 27.9929 62.5024 27.5954C61.6461 27.1979 60.8933 26.6047 60.3039 25.8629C59.7584 25.1653 59.3429 24.3739 59.0772 23.527C58.5373 21.8071 58.5373 19.9611 59.0772 18.2413C59.3431 17.4029 59.7588 16.6205 60.3039 15.9329C60.8585 15.2448 61.5564 14.6881 62.3482 14.3023C63.2502 13.8711 64.2395 13.6578 65.2376 13.6794C66.1729 13.6533 67.1019 13.8427 67.9537 14.2332C68.8055 14.6237 69.5577 15.205 70.1531 15.9329C70.6982 16.6107 71.1162 17.3802 71.3888 18.2413C71.6614 19.1024 71.7977 19.9818 71.7977 20.8704ZM82.3919 17.0688C81.79 16.8131 81.1459 16.6733 80.493 16.6565C79.9825 16.6316 79.474 16.7359 79.0137 16.9599C78.5535 17.1839 78.1562 17.5205 77.858 17.939C77.571 18.3411 77.3558 18.7906 77.222 19.2673C77.081 19.7585 77.0107 20.2675 77.013 20.7788C77.0099 21.3337 77.0709 21.887 77.1947 22.4277C77.304 22.9161 77.4977 23.3812 77.7672 23.8018C78.0125 24.1888 78.3418 24.5145 78.7303 24.7545C79.1119 24.9926 79.5753 25.1209 80.0932 25.1209C80.5614 25.1104 81.0199 24.9846 81.4288 24.7545C81.8207 24.5683 82.1539 24.2766 82.3919 23.9117V17.0688ZM82.6736 27.8416L82.5373 26.7789C82.1753 27.1754 81.7442 27.5015 81.2653 27.7408C80.5708 28.0403 79.8187 28.1793 79.064 28.1476C78.3094 28.1159 77.5713 27.9143 76.904 27.5576C76.1885 27.1607 75.5682 26.6104 75.0868 25.9453C74.5784 25.246 74.1969 24.4613 73.9601 23.6277C73.7049 22.7344 73.5764 21.8092 73.5785 20.8796C73.5785 19.9727 73.7057 19.0932 73.9692 18.2322C74.2255 17.3961 74.6354 16.6162 75.1776 15.9329C75.7633 15.2008 76.5098 14.6161 77.3582 14.225C78.2066 13.8339 79.1336 13.6471 80.0659 13.6794C80.7928 13.6794 81.5651 13.8168 82.3919 14.0824V8.72352H85.9173V27.8416H82.6736ZM95.8392 21.3559C95.0619 21.4084 94.2883 21.5063 93.5223 21.649C92.7591 21.8048 92.2321 22.0613 91.9322 22.4368C91.6515 22.7799 91.4974 23.2105 91.4961 23.6552C91.4961 24.1132 91.6597 24.4797 91.9958 24.7545C92.4028 25.0549 92.9005 25.2038 93.4042 25.1759C93.8585 25.1759 94.3128 25.0842 94.7398 24.8919C95.1437 24.7141 95.5153 24.4695 95.8392 24.1682V21.3559ZM96.1209 27.8232L95.9846 26.7973C95.5816 27.2372 95.0844 27.5787 94.5308 27.7958C93.3666 28.2603 92.074 28.2799 90.8964 27.8507C90.0509 27.5665 89.3183 27.0162 88.8063 26.2807C88.2943 25.5452 88.0301 24.6634 88.0525 23.7651C88.0408 23.1602 88.1685 22.5607 88.4254 22.0139C88.6824 21.4671 89.0617 20.9879 89.5335 20.6139C90.0103 20.2399 90.5402 19.9404 91.1054 19.7253C92.1876 19.3384 93.3142 19.0921 94.4581 18.9925L95.821 18.8642V18.6627C95.821 17.9024 95.6212 17.3619 95.2305 17.0321C94.7649 16.6833 94.1921 16.5113 93.6131 16.5466C92.5834 16.5518 91.5804 16.8782 90.742 17.481C90.5587 17.5983 90.3827 17.7268 90.215 17.8657L89.0429 15.3741C89.6051 14.944 90.2225 14.5927 90.8783 14.3298C92.5862 13.614 94.4817 13.4915 96.2663 13.9817C96.8798 14.175 97.4413 14.5076 97.9075 14.9538C98.3737 15.4 98.7323 15.9481 98.9557 16.5558C99.2288 17.322 99.3582 18.1328 99.3373 18.9467V27.8324L96.1209 27.8232ZM110.231 11.8747C109.603 11.5913 108.92 11.4535 108.233 11.4717C107.751 11.4717 107.333 11.6182 107.006 11.9205C106.67 12.2137 106.506 12.6992 106.506 13.3679V14.0183H109.468V16.8856H106.533V27.8416H103.008V16.8856H101.191V14.0183H103.008V13.2855C103.008 12.3786 103.126 11.6182 103.353 10.9953C103.539 10.4373 103.852 9.9311 104.267 9.51739C104.682 9.10368 105.187 8.7941 105.743 8.61359C107.362 8.17769 109.077 8.28378 110.631 8.91589L110.231 11.8747ZM119.844 20.8612C119.847 20.3053 119.78 19.7513 119.645 19.2123C119.529 18.7356 119.325 18.2851 119.045 17.8841C118.792 17.5205 118.463 17.2172 118.082 16.9955C117.675 16.7639 117.213 16.6468 116.746 16.6565C116.279 16.6463 115.817 16.7634 115.41 16.9955C115.026 17.2166 114.694 17.5199 114.438 17.8841C114.159 18.2894 113.956 18.7426 113.839 19.2215C113.562 20.3031 113.562 21.4377 113.839 22.5193C113.958 22.9914 114.155 23.4402 114.42 23.8476C114.669 24.2255 115.002 24.5392 115.392 24.7636C115.808 24.9895 116.274 25.1031 116.746 25.0934C117.204 25.1049 117.656 24.996 118.059 24.7776C118.462 24.5591 118.802 24.2386 119.045 23.8476C119.322 23.4443 119.525 22.9945 119.645 22.5193C119.781 21.9774 119.848 21.4202 119.844 20.8612ZM123.306 20.8704C123.308 21.772 123.17 22.6683 122.897 23.527C122.635 24.3751 122.219 25.167 121.671 25.8629C121.085 26.6062 120.334 27.2006 119.478 27.5983C118.623 27.996 117.687 28.186 116.746 28.153C115.804 28.1838 114.867 27.9929 114.011 27.5954C113.155 27.1979 112.402 26.6047 111.812 25.8629C111.267 25.1653 110.851 24.3739 110.586 23.527C110.039 21.8083 110.039 19.96 110.586 18.2413C110.849 17.4035 111.261 16.6212 111.803 15.9329C112.361 15.2437 113.062 14.687 113.857 14.3023C114.759 13.8711 115.748 13.6578 116.746 13.6794C117.681 13.6533 118.61 13.8427 119.462 14.2332C120.314 14.6237 121.066 15.205 121.662 15.9329C122.207 16.6107 122.625 17.3802 122.897 18.2413C123.17 19.1024 123.306 19.9818 123.306 20.8704ZM134.255 27.8416V19.9635C134.309 19.0979 134.079 18.2383 133.601 17.5176C133.388 17.2378 133.112 17.0135 132.796 16.8637C132.48 16.7138 132.133 16.6428 131.783 16.6565C131.244 16.6503 130.715 16.7997 130.257 17.0871C129.818 17.3547 129.412 17.6746 129.049 18.0398V27.8416H125.523V14.0183H128.74L128.903 15.1176C130.012 14.1853 131.412 13.6762 132.856 13.6794C133.582 13.6794 134.246 13.7893 134.855 14.0091C135.449 14.2255 135.982 14.5839 136.408 15.0534C136.853 15.5298 137.19 16.1527 137.426 16.913C137.662 17.6825 137.78 18.5986 137.78 19.6612V27.8416H134.255ZM148.747 19.2673C148.721 18.8374 148.62 18.4156 148.447 18.0215C148.307 17.6968 148.103 17.4039 147.848 17.1604C147.407 16.7496 146.83 16.5207 146.23 16.5191C145.586 16.5308 144.967 16.7745 144.486 17.2062C144.196 17.4671 143.96 17.7838 143.793 18.1378C143.626 18.4917 143.531 18.8758 143.513 19.2673H148.747ZM143.432 21.8231C143.504 22.9865 143.868 23.8293 144.522 24.3422C145.242 24.8821 146.124 25.1569 147.021 25.1209C147.859 25.1199 148.691 24.9646 149.474 24.6629C149.761 24.548 150.041 24.4134 150.31 24.2598C150.493 24.1546 150.664 24.0286 150.819 23.8842L151.764 26.7789C151.229 27.1436 150.644 27.4275 150.028 27.6217C148.903 27.9695 147.734 28.1485 146.557 28.153C145.691 28.1561 144.831 28.0105 144.013 27.7225C143.219 27.443 142.496 26.9894 141.896 26.3942C141.261 25.7531 140.766 24.9856 140.442 24.1407C140.058 23.1173 139.873 22.0286 139.897 20.9345C139.897 19.762 140.07 18.736 140.397 17.8383C140.804 16.6075 141.59 15.5401 142.641 14.7919C143.692 14.0437 144.953 13.6539 146.239 13.6794C147.067 13.671 147.89 13.817 148.665 14.1099C149.401 14.3939 150.037 14.8428 150.573 15.4382C151.118 16.0428 151.546 16.8214 151.854 17.7833C152.172 18.736 152.327 19.8719 152.327 21.191V21.8231H143.432Z" fill="#202430"/>
</g>
</svg>
